<svg version="1.2" xmlns="http://www.w3.org/2000/svg" viewBox="0 0 1280 417" width="1280" height="417">
	<title>New Project</title>
	<style>
		.s0 { fill: #ffffff } 
	</style>
	<path id="Shape 1" class="s0" d="m1060.5 581c-153.5 0-277.5-124-277.5-277.5 0-153.5 124-277.5 277.5-277.5 153.5 0 277.5 124 277.5 277.5 0 153.5-124 277.5-277.5 277.5z"/>
	<path id="Shape 5" class="s0" d="m144 486c-69.1 0-125-55.9-125-125 0-69.1 55.9-125 125-125 69.1 0 125 55.9 125 125 0 69.1-55.9 125-125 125z"/>
	<path id="Shape 2" class="s0" d=""/>
	<path id="Shape 3" class="s0" d="m694 532c-96.8 0-175-78.2-175-175 0-96.8 78.2-175 175-175 96.8 0 175 78.2 175 175 0 96.8-78.2 175-175 175z"/>
	<path id="Shape 4" class="s0" d="m387.5 544c-117.5 0-212.5-95-212.5-212.5 0-117.5 95-212.5 212.5-212.5 117.5 0 212.5 95 212.5 212.5 0 117.5-95 212.5-212.5 212.5z"/>
</svg>